<!--?xml version="1.0" encoding="utf-8"?-->
<!-- Generator: Adobe Illustrator 18.1.1, SVG Export Plug-In . SVG Version: 6.00 Build 0)  -->

<svg version="1.1" id="_x32_" xmlns="http://www.w3.org/2000/svg" xmlns:xlink="http://www.w3.org/1999/xlink" x="0px" y="0px" viewBox="0 0 512 512" style="width: 64px; height: 64px; opacity: 1;" xml:space="preserve">
<style type="text/css">
	.st0{fill:#4B4B4B;}
</style>
<g>
	<path class="st0" d="M425.026,274.702c-5.122,1.514-8.043,6.883-6.536,11.999c1.507,5.109,6.883,8.03,11.992,6.523
		c5.109-1.507,8.044-6.876,6.523-11.992C435.497,276.116,430.134,273.195,425.026,274.702z" style="fill: rgb(75, 75, 75);"></path>
	<path class="st0" d="M512,154.133c0.013-8.871-2.108-17.528-5.936-25.592c-3.348-7.076-7.99-13.727-13.686-19.963
		c-9.965-10.911-23.144-20.603-38.898-29.16c-23.637-12.819-53.131-23.104-86.667-30.254C333.276,42.02,295.712,38.038,256,38.038
		c-34.563,0-67.525,3.022-97.606,8.518c-45.128,8.27-83.758,21.983-111.839,39.912c-14.046,8.985-25.492,19.056-33.643,30.355
		c-4.068,5.649-7.296,11.618-9.51,17.875C1.187,140.946,0,147.483,0,154.133c0,0.867,0.04,1.734,0.08,2.594L0.027,156.7
		c0,5.996,0.454,13.086,1.454,21.164c1.734,14.12,5.109,31.227,10.618,50.07c8.27,28.253,21.343,60.388,41.046,91.783
		c18.848,30.028,43.82,59.361,76.409,83.686v35.45c0,3.608,1.8,6.949,4.815,8.924c0.72,0.467,10.912,7.03,31.054,13.46
		c20.143,6.436,50.224,12.726,90.576,12.726c40.366,0,70.446-6.29,90.589-12.726c20.13-6.43,30.334-12.992,31.055-13.46
		c3.015-1.975,4.816-5.316,4.816-8.924v-35.43c24.478-18.275,44.661-39.385,61.175-61.482c26.252-35.15,43.26-72.754,53.785-105.829
		c5.256-16.548,8.884-31.969,11.205-45.441c2.321-13.486,3.362-24.992,3.362-33.97l-0.04,0.007
		C511.986,155.853,512,154.993,512,154.133z M361.129,432.563c-4.455,2.227-11.992,5.569-22.744,8.89
		c-18.155,5.609-45.421,11.172-82.385,11.178c-38.138-0.006-65.951-5.929-84.079-11.719c-9.071-2.888-15.701-5.756-19.996-7.836
		c-0.374-0.18-0.708-0.347-1.041-0.514v-26.526c17.648,6.096,52.318,14.927,105.116,14.92c52.798,0.007,87.481-8.824,105.129-14.92
		V432.563z M479.438,221.951c-7.79,26.619-20.169,57-38.645,86.427c-18.476,29.426-43.02,57.886-75.208,80.971
		c-0.387,0.28-0.747,0.587-1.094,0.901c-11.446,4.795-46.875,17.128-108.491,17.134c-38.672,0-67.031-4.875-85.627-9.677
		c-9.298-2.401-16.154-4.789-20.623-6.544c-0.84-0.333-1.561-0.627-2.241-0.913c-0.334-0.314-0.694-0.621-1.08-0.901
		c-24.518-17.588-44.608-38.291-60.962-60.181c-24.531-32.816-40.632-68.318-50.544-99.52c-2.294-7.223-4.242-14.207-5.896-20.87
		c8.378,7.283,18.276,13.973,29.507,20.083c23.638,12.819,53.118,23.09,86.654,30.247c33.536,7.144,71.113,11.125,110.812,11.125
		c34.576,0,67.538-3.022,97.619-8.518c45.128-8.27,83.746-21.983,111.839-39.918c6.43-4.109,12.272-8.45,17.542-13.033
		C481.932,213.033,480.758,217.442,479.438,221.951z M113.507,164.297c11.632,7.157,28.4,15.294,49.129,19.263l0.174-0.921
		c1.121,3.595,2.375,7.216,3.775,10.858c1.788,4.635,3.815,9.298,6.096,13.94c-27.052-4.622-50.277-14.901-67.271-24.558
		c-9.631-5.463-17.261-10.719-22.437-14.58c-0.708-0.52-1.361-1.014-1.975-1.48c3.828-4.196,8.804-8.364,14.94-12.34
		c0.654-0.427,1.334-0.84,2.014-1.26C100.941,155.713,106.224,159.815,113.507,164.297z M110.959,146.155
		c12.032-5.763,26.506-10.872,42.793-14.994c0.56,10.998,2.041,23.911,5.269,37.69c-15.874-3.874-28.987-10.358-38.392-16.14
		C116.748,150.324,113.493,148.049,110.959,146.155z M342.788,195.865c-13.994,8.411-22.611,16.602-26.68,20.957
		c-3.041-2.474-5.936-5.029-8.684-7.644c-4.095-3.902-7.884-7.95-11.392-12.092c4.015-3.462,13.446-10.805,28.747-18.335
		c19.956-9.812,49.903-19.91,91.003-22.084c3.135,2.214,5.976,4.462,8.417,6.749c2.294,2.148,4.268,4.322,5.936,6.49
		C390.25,172.908,361.636,184.54,342.788,195.865z M436.458,183.139c0.267,1.468,0.467,2.942,0.467,4.422
		c-0.014,3.996-1,7.917-3.095,11.952c-3.614,7.05-10.805,14.38-21.236,21.143c-8.218,5.349-18.408,10.324-30.16,14.74
		c-6.35,1.694-12.913,3.268-19.662,4.702c-1.214,0.266-2.482,0.487-3.709,0.74c-11.952-4.229-22.517-9.658-31.895-15.9
		c3.869-3.949,11.486-10.839,23.491-17.928C368.68,196.379,396.506,185.3,436.458,183.139z M317.215,167.325
		c-15.007,7.544-24.705,14.907-29.534,18.996c-6.043-8.464-11.032-17.062-15.114-25.305l0.52,0.507l0.067-0.067
		c0.734-0.727,7.63-7.344,22.264-14.093c14.046-6.477,35.256-13.08,65.124-14.667c9.044,2.481,17.488,5.256,25.185,8.297
		c3.135,1.241,6.109,2.522,8.977,3.836C360.889,148.957,335.224,158.255,317.215,167.325z M287.415,136.104
		c-10.005,4.842-16.661,9.605-20.41,12.666c-0.694-1.681-1.374-3.335-1.988-4.949c-3.748-9.724-6.15-18.182-7.63-24.238
		c22.45,0.14,43.927,1.854,63.71,4.856C307.237,127.68,296.059,131.915,287.415,136.104z M262.523,171.287
		c8.284,15.82,19.742,32.722,35.523,47.742c10.285,9.798,22.45,18.775,36.684,26.086c-14.153,2.101-28.92,3.642-44.14,4.588
		c-15.274-8.584-27.586-18.935-37.538-30.194c-16.034-18.128-26.012-38.631-32.202-57.427c-5.109-15.514-7.604-29.84-8.817-40.592
		c10.178-0.934,20.663-1.548,31.415-1.794C245.795,130.135,251.224,149.71,262.523,171.287z M216.021,186.981
		c6.456,14.013,15.14,28.3,26.839,41.533c6.937,7.864,14.98,15.341,24.198,22.151c-3.668,0.073-7.35,0.14-11.058,0.14
		c-11.192,0-22.197-0.361-32.989-0.994c-9.538-7.838-17.475-16.348-24.065-25.232c-12.939-17.401-20.796-36.23-25.478-53.992
		c-4.122-15.64-5.763-30.421-6.243-42.5c9.924-2.074,20.369-3.802,31.281-5.149C200.32,139.065,204.803,162.596,216.021,186.981z
		 M98.686,194.712c20.144,11.432,48.597,23.777,82.279,27.633c2.188,3.481,4.522,6.943,7.056,10.351
		c3.909,5.262,8.284,10.398,13.086,15.374c-13.553-1.36-26.679-3.181-39.219-5.469c-15.727-2.862-30.561-6.443-44.287-10.605
		c-14.154-6.07-25.519-13.033-33.269-20.276c-4.349-4.062-7.55-8.178-9.644-12.206c-2.081-4.035-3.082-7.957-3.082-11.952
		c0-3.128,0.64-6.21,1.908-9.344C79.09,182.439,87.628,188.429,98.686,194.712z M488.509,171.413
		c-2.388,5.05-5.883,10.145-10.485,15.174c-8.03,8.824-19.49,17.415-33.816,25.192c-1.067,0.58-2.174,1.154-3.268,1.727
		c1.908-2.487,3.588-5.062,4.976-7.737c2.962-5.696,4.616-11.872,4.602-18.208c0.014-6.33-1.64-12.506-4.602-18.208
		c-5.216-9.991-14.207-18.649-25.919-26.286c-14.674-9.524-33.803-17.468-56.174-23.591l-0.026-0.56
		c-0.587,0.02-1.16,0.06-1.747,0.087c-3.895-1.047-7.884-2.041-11.979-2.968c-28.32-6.43-61.002-10.077-95.805-10.077
		c-53.051,0.013-101.1,8.437-136.463,22.376c-17.689,7.004-32.256,15.36-42.754,25.139c-5.243,4.896-9.471,10.178-12.432,15.881
		c-2.962,5.702-4.616,11.878-4.616,18.208c0,6.336,1.654,12.512,4.616,18.208c0.827,1.601,1.787,3.155,2.814,4.682
		c-2.921-1.641-5.749-3.315-8.417-5.022c-12.513-7.99-22.09-16.648-28.334-25.339c-3.134-4.342-5.442-8.684-6.963-12.992
		c-1.521-4.315-2.281-8.598-2.281-12.966c0-5.81,1.334-11.499,4.069-17.282c2.388-5.042,5.883-10.131,10.472-15.174
		c8.044-8.817,19.502-17.415,33.83-25.185c21.49-11.672,49.356-21.496,81.438-28.32C181.325,61.336,217.609,57.467,256,57.467
		c33.442,0,65.27,2.928,94.124,8.197c43.273,7.89,79.851,21.15,104.876,37.178c12.512,7.99,22.09,16.648,28.333,25.339
		c3.121,4.342,5.429,8.684,6.963,12.992c1.521,4.315,2.281,8.598,2.281,12.96C492.564,159.948,491.23,165.631,488.509,171.413z" style="fill: rgb(75, 75, 75);"></path>
	<path class="st0" d="M386.408,289.709c-5.122,1.508-8.044,6.876-6.536,11.985c1.52,5.122,6.883,8.044,11.992,6.537
		c5.122-1.507,8.044-6.883,6.523-11.992C396.879,291.123,391.516,288.201,386.408,289.709z" style="fill: rgb(75, 75, 75);"></path>
	<path class="st0" d="M345.696,298.907c-5.256,0.887-8.804,5.87-7.911,11.125c0.881,5.262,5.87,8.804,11.126,7.917
		c5.256-0.887,8.804-5.876,7.91-11.125C355.927,301.561,350.951,298.019,345.696,298.907z" style="fill: rgb(75, 75, 75);"></path>
	<path class="st0" d="M303.929,304.076c-5.309,0.447-9.271,5.109-8.818,10.418c0.44,5.316,5.096,9.264,10.418,8.83
		c5.309-0.44,9.258-5.108,8.818-10.424C313.907,307.591,309.238,303.636,303.929,304.076z" style="fill: rgb(75, 75, 75);"></path>
	<path class="st0" d="M261.763,306.037c-5.336,0.066-9.605,4.442-9.538,9.771c0.054,5.329,4.429,9.605,9.765,9.538
		c5.336-0.06,9.604-4.428,9.538-9.765C271.46,310.252,267.098,305.984,261.763,306.037z" style="fill: rgb(75, 75, 75);"></path>
	<path class="st0" d="M136.397,293.411c-5.189-1.267-10.405,1.908-11.672,7.084c-1.267,5.189,1.921,10.404,7.097,11.672
		c5.176,1.261,10.404-1.914,11.658-7.096C144.748,299.894,141.573,294.671,136.397,293.411z" style="fill: rgb(75, 75, 75);"></path>
	<path class="st0" d="M177.576,301.075c-5.282-0.721-10.151,2.981-10.858,8.264c-0.734,5.282,2.961,10.144,8.257,10.872
		c5.269,0.72,10.138-2.975,10.872-8.264C186.567,306.671,182.859,301.802,177.576,301.075z" style="fill: rgb(75, 75, 75);"></path>
	<path class="st0" d="M219.53,305.09c-5.322-0.3-9.885,3.762-10.192,9.084c-0.307,5.322,3.762,9.891,9.084,10.198
		c5.322,0.307,9.898-3.761,10.205-9.09C228.921,309.965,224.852,305.396,219.53,305.09z" style="fill: rgb(75, 75, 75);"></path>
	<path class="st0" d="M90.469,277.27c-5.176-1.261-10.392,1.914-11.659,7.096c-1.268,5.182,1.908,10.398,7.083,11.672
		c5.19,1.254,10.405-1.92,11.672-7.097C98.82,283.76,95.658,278.537,90.469,277.27z" style="fill: rgb(75, 75, 75);"></path>
</g>
</svg>
